<svg width="31" height="22" viewBox="0 0 31 22" fill="none" xmlns="http://www.w3.org/2000/svg">
<path d="M0.828613 21.6663V16.333C0.828613 15.5774 1.08972 14.9441 1.61195 14.433C2.13417 13.9219 2.76195 13.6663 3.49528 13.6663H7.86195C8.30639 13.6663 8.72861 13.7774 9.12861 13.9997C9.52861 14.2219 9.85083 14.5219 10.0953 14.8997C10.7397 15.7663 11.5342 16.4441 12.4786 16.933C13.4231 17.4219 14.4286 17.6663 15.4953 17.6663C16.5842 17.6663 17.6008 17.4219 18.5453 16.933C19.4897 16.4441 20.2731 15.7663 20.8953 14.8997C21.1842 14.5219 21.5231 14.2219 21.9119 13.9997C22.3008 13.7774 22.7064 13.6663 23.1286 13.6663H27.4953C28.2508 13.6663 28.8842 13.9219 29.3953 14.433C29.9064 14.9441 30.1619 15.5774 30.1619 16.333V21.6663H20.8286V18.633C20.0508 19.1886 19.2119 19.6108 18.3119 19.8997C17.4119 20.1886 16.4731 20.333 15.4953 20.333C14.5397 20.333 13.6064 20.183 12.6953 19.883C11.7842 19.583 10.9397 19.1552 10.1619 18.5997V21.6663H0.828613ZM15.4953 16.333C14.6508 16.333 13.8508 16.1386 13.0953 15.7497C12.3397 15.3608 11.7064 14.8219 11.1953 14.133C10.8175 13.5774 10.3453 13.1386 9.77861 12.8163C9.21195 12.4941 8.59528 12.333 7.92861 12.333C8.4175 11.5108 9.45083 10.8608 11.0286 10.383C12.6064 9.90523 14.0953 9.66634 15.4953 9.66634C16.8953 9.66634 18.3842 9.90523 19.9619 10.383C21.5397 10.8608 22.5731 11.5108 23.0619 12.333C22.4175 12.333 21.8064 12.4941 21.2286 12.8163C20.6508 13.1386 20.1731 13.5774 19.7953 14.133C19.3064 14.8441 18.6842 15.3886 17.9286 15.7663C17.1731 16.1441 16.3619 16.333 15.4953 16.333ZM4.82861 12.333C3.7175 12.333 2.77306 11.9441 1.99528 11.1663C1.2175 10.3886 0.828613 9.44412 0.828613 8.33301C0.828613 7.19967 1.2175 6.24967 1.99528 5.48301C2.77306 4.71634 3.7175 4.33301 4.82861 4.33301C5.96195 4.33301 6.91195 4.71634 7.67861 5.48301C8.44528 6.24967 8.82861 7.19967 8.82861 8.33301C8.82861 9.44412 8.44528 10.3886 7.67861 11.1663C6.91195 11.9441 5.96195 12.333 4.82861 12.333ZM26.1619 12.333C25.0508 12.333 24.1064 11.9441 23.3286 11.1663C22.5508 10.3886 22.1619 9.44412 22.1619 8.33301C22.1619 7.19967 22.5508 6.24967 23.3286 5.48301C24.1064 4.71634 25.0508 4.33301 26.1619 4.33301C27.2953 4.33301 28.2453 4.71634 29.0119 5.48301C29.7786 6.24967 30.1619 7.19967 30.1619 8.33301C30.1619 9.44412 29.7786 10.3886 29.0119 11.1663C28.2453 11.9441 27.2953 12.333 26.1619 12.333ZM15.4953 8.33301C14.3842 8.33301 13.4397 7.94412 12.6619 7.16634C11.8842 6.38856 11.4953 5.44412 11.4953 4.33301C11.4953 3.19967 11.8842 2.24967 12.6619 1.48301C13.4397 0.716341 14.3842 0.333008 15.4953 0.333008C16.6286 0.333008 17.5786 0.716341 18.3453 1.48301C19.1119 2.24967 19.4953 3.19967 19.4953 4.33301C19.4953 5.44412 19.1119 6.38856 18.3453 7.16634C17.5786 7.94412 16.6286 8.33301 15.4953 8.33301Z" fill="#4099D1"/>
</svg>
