<svg width="32" height="33" viewBox="0 0 32 33" fill="none" xmlns="http://www.w3.org/2000/svg">
<path d="M29.04 5.32675C29.1948 5.13162 29.2918 4.89705 29.3201 4.64961C29.3483 4.40217 29.3067 4.15176 29.2 3.92675C29.0919 3.69985 28.9219 3.50812 28.7096 3.37365C28.4973 3.23918 28.2513 3.16746 28 3.16675H4C3.74869 3.16746 3.50269 3.23918 3.29037 3.37365C3.07806 3.50812 2.90807 3.69985 2.8 3.92675C2.69326 4.15176 2.65167 4.40217 2.67995 4.64961C2.70823 4.89705 2.80524 5.13162 2.96 5.32675L14.6667 19.9667V27.1667H7C6.64638 27.1667 6.30724 27.3072 6.05719 27.5573C5.80714 27.8073 5.66667 28.1465 5.66667 28.5001C5.66667 28.8537 5.80714 29.1928 6.05719 29.4429C6.30724 29.6929 6.64638 29.8334 7 29.8334H25C25.3536 29.8334 25.6928 29.6929 25.9428 29.4429C26.1929 29.1928 26.3333 28.8537 26.3333 28.5001C26.3333 28.1465 26.1929 27.8073 25.9428 27.5573C25.6928 27.3072 25.3536 27.1667 25 27.1667H17.3333V19.9667L29.04 5.32675ZM6.77333 5.83341H25.2267L22.0267 9.83342H10.0267L6.77333 5.83341ZM16 17.3667L12.1067 12.5001H19.8933L16 17.3667Z" fill="black"/>
</svg>
