<svg width="32" height="32" viewBox="0 0 32 32" fill="none" xmlns="http://www.w3.org/2000/svg">
<path d="M25.3333 8H21.3333V6.66667C21.3333 5.95942 21.0524 5.28115 20.5523 4.78105C20.0522 4.28095 19.3739 4 18.6667 4H13.3333C12.6261 4 11.9478 4.28095 11.4477 4.78105C10.9476 5.28115 10.6667 5.95942 10.6667 6.66667V8H6.66667C5.60581 8 4.58839 8.42143 3.83824 9.17157C3.0881 9.92172 2.66667 10.9391 2.66667 12V24C2.66667 25.0609 3.0881 26.0783 3.83824 26.8284C4.58839 27.5786 5.60581 28 6.66667 28H25.3333C26.3942 28 27.4116 27.5786 28.1618 26.8284C28.9119 26.0783 29.3333 25.0609 29.3333 24V12C29.3333 10.9391 28.9119 9.92172 28.1618 9.17157C27.4116 8.42143 26.3942 8 25.3333 8ZM13.3333 6.66667H18.6667V8H13.3333V6.66667ZM26.6667 24C26.6667 24.3536 26.5262 24.6928 26.2761 24.9428C26.0261 25.1929 25.687 25.3333 25.3333 25.3333H6.66667C6.31305 25.3333 5.97391 25.1929 5.72386 24.9428C5.47381 24.6928 5.33334 24.3536 5.33334 24V16.52L11.5733 18.6667C11.7149 18.6859 11.8584 18.6859 12 18.6667H20C20.1446 18.664 20.2882 18.6416 20.4267 18.6L26.6667 16.52V24ZM26.6667 13.7067L19.7867 16H12.2133L5.33334 13.7067V12C5.33334 11.6464 5.47381 11.3072 5.72386 11.0572C5.97391 10.8071 6.31305 10.6667 6.66667 10.6667H25.3333C25.687 10.6667 26.0261 10.8071 26.2761 11.0572C26.5262 11.3072 26.6667 11.6464 26.6667 12V13.7067Z" fill="black"/>
</svg>
