<svg width="32" height="32" viewBox="0 0 32 32" fill="none" xmlns="http://www.w3.org/2000/svg">
<path d="M22.4533 15.5065C22.9874 15.5132 23.5174 15.4127 24.012 15.2112C24.5067 15.0097 24.9559 14.7112 25.3333 14.3332L29.1067 10.5599C29.355 10.3101 29.4944 9.97213 29.4944 9.61988C29.4944 9.26764 29.355 8.9297 29.1067 8.67988C28.9827 8.55491 28.8352 8.45572 28.6728 8.38803C28.5103 8.32034 28.336 8.28548 28.16 8.28548C27.984 8.28548 27.8097 8.32034 27.6472 8.38803C27.4847 8.45572 27.3373 8.55491 27.2133 8.67988L23.4 12.4399C23.276 12.5649 23.1286 12.664 22.9661 12.7317C22.8036 12.7994 22.6293 12.8343 22.4533 12.8343C22.2773 12.8343 22.103 12.7994 21.9406 12.7317C21.7781 12.664 21.6306 12.5649 21.5067 12.4399L26.2267 7.73322C26.351 7.6089 26.4496 7.46131 26.5169 7.29888C26.5842 7.13645 26.6188 6.96236 26.6188 6.78655C26.6188 6.61074 26.5842 6.43665 26.5169 6.27422C26.4496 6.11179 26.351 5.9642 26.2267 5.83988C26.1023 5.71556 25.9548 5.61695 25.7923 5.54967C25.6299 5.48239 25.4558 5.44776 25.28 5.44776C25.1042 5.44776 24.9301 5.48239 24.7677 5.54967C24.6052 5.61695 24.4576 5.71556 24.3333 5.83988L19.6267 10.5599C19.3783 10.3101 19.2389 9.97213 19.2389 9.61988C19.2389 9.26764 19.3783 8.9297 19.6267 8.67988L23.4 4.90655C23.5243 4.78223 23.6229 4.63464 23.6902 4.47222C23.7575 4.30979 23.7921 4.1357 23.7921 3.95988C23.7921 3.78407 23.7575 3.60998 23.6902 3.44755C23.6229 3.28512 23.5243 3.13753 23.4 3.01322C23.2757 2.8889 23.1281 2.79028 22.9657 2.723C22.8032 2.65572 22.6291 2.62109 22.4533 2.62109C22.2775 2.62109 22.1034 2.65572 21.941 2.723C21.7786 2.79028 21.631 2.8889 21.5067 3.01322L17.7333 6.78655C16.9843 7.53655 16.5635 8.55321 16.5635 9.61322C16.5635 10.6732 16.9843 11.6899 17.7333 12.4399L16 14.1599L4.97333 3.09322L4.84 3.01322C4.77184 2.95375 4.69551 2.90436 4.61333 2.86655L4.37333 2.77322L4.21333 2.66655H4.12H3.85333C3.77384 2.65384 3.69283 2.65384 3.61333 2.66655C3.53261 2.69593 3.45634 2.73631 3.38667 2.78655L3.17333 2.91988H3.08L3 3.05322C2.94357 3.12361 2.89443 3.19956 2.85333 3.27988C2.81428 3.36119 2.78303 3.44601 2.76 3.53322C2.76 3.53322 2.76 3.62655 2.76 3.67988C2.43645 5.9351 2.64273 8.23468 3.3625 10.3963C4.08227 12.5579 5.29573 14.5221 6.90666 16.1332L10.4267 19.6399L3.21333 26.8399C3.08836 26.9638 2.98917 27.1113 2.92148 27.2738C2.85379 27.4363 2.81893 27.6105 2.81893 27.7866C2.81893 27.9626 2.85379 28.1368 2.92148 28.2993C2.98917 28.4618 3.08836 28.6093 3.21333 28.7332C3.33792 28.8568 3.48567 28.9546 3.64812 29.0209C3.81057 29.0873 3.98452 29.1209 4.16 29.1199C4.33547 29.1209 4.50942 29.0873 4.67187 29.0209C4.83432 28.9546 4.98208 28.8568 5.10666 28.7332L13.2 20.7599L16.9733 16.9865L19.64 14.3199C20.384 15.0719 21.3955 15.4986 22.4533 15.5065ZM12.2533 17.9332L8.74667 14.4132C6.82461 12.4649 5.62113 9.92157 5.33333 7.19988L14.1467 15.9999L12.2533 17.9332ZM20.5733 18.6932C20.3223 18.4404 19.981 18.2976 19.6247 18.2964C19.2684 18.2951 18.9262 18.4355 18.6733 18.6866C18.4205 18.9376 18.2777 19.2789 18.2765 19.6352C18.2752 19.9915 18.4156 20.3337 18.6667 20.5865L27.0667 28.9865C27.3213 29.2183 27.6558 29.3425 28 29.3332C28.1755 29.3342 28.3494 29.3006 28.5119 29.2342C28.6743 29.1679 28.8221 29.0701 28.9467 28.9465C29.0716 28.8226 29.1708 28.6751 29.2385 28.5127C29.3062 28.3502 29.3411 28.1759 29.3411 27.9999C29.3411 27.8239 29.3062 27.6496 29.2385 27.4871C29.1708 27.3246 29.0716 27.1772 28.9467 27.0532L20.5733 18.6932Z" fill="black"/>
</svg>
