<svg width="33" height="32" viewBox="0 0 33 32" fill="none" xmlns="http://www.w3.org/2000/svg">
<path d="M19.3333 10.6666H20.6666C21.0203 10.6666 21.3594 10.5262 21.6094 10.2761C21.8595 10.0261 22 9.68691 22 9.33329C22 8.97967 21.8595 8.64053 21.6094 8.39048C21.3594 8.14044 21.0203 7.99996 20.6666 7.99996H19.3333C18.9797 7.99996 18.6405 8.14044 18.3905 8.39048C18.1404 8.64053 18 8.97967 18 9.33329C18 9.68691 18.1404 10.0261 18.3905 10.2761C18.6405 10.5262 18.9797 10.6666 19.3333 10.6666ZM19.3333 16H20.6666C21.0203 16 21.3594 15.8595 21.6094 15.6094C21.8595 15.3594 22 15.0202 22 14.6666C22 14.313 21.8595 13.9739 21.6094 13.7238C21.3594 13.4738 21.0203 13.3333 20.6666 13.3333H19.3333C18.9797 13.3333 18.6405 13.4738 18.3905 13.7238C18.1404 13.9739 18 14.313 18 14.6666C18 15.0202 18.1404 15.3594 18.3905 15.6094C18.6405 15.8595 18.9797 16 19.3333 16ZM12.6666 10.6666H14C14.3536 10.6666 14.6927 10.5262 14.9428 10.2761C15.1928 10.0261 15.3333 9.68691 15.3333 9.33329C15.3333 8.97967 15.1928 8.64053 14.9428 8.39048C14.6927 8.14044 14.3536 7.99996 14 7.99996H12.6666C12.313 7.99996 11.9739 8.14044 11.7238 8.39048C11.4738 8.64053 11.3333 8.97967 11.3333 9.33329C11.3333 9.68691 11.4738 10.0261 11.7238 10.2761C11.9739 10.5262 12.313 10.6666 12.6666 10.6666ZM12.6666 16H14C14.3536 16 14.6927 15.8595 14.9428 15.6094C15.1928 15.3594 15.3333 15.0202 15.3333 14.6666C15.3333 14.313 15.1928 13.9739 14.9428 13.7238C14.6927 13.4738 14.3536 13.3333 14 13.3333H12.6666C12.313 13.3333 11.9739 13.4738 11.7238 13.7238C11.4738 13.9739 11.3333 14.313 11.3333 14.6666C11.3333 15.0202 11.4738 15.3594 11.7238 15.6094C11.9739 15.8595 12.313 16 12.6666 16ZM28.6666 26.6666H27.3333V3.99996C27.3333 3.64634 27.1928 3.3072 26.9428 3.05715C26.6927 2.8071 26.3536 2.66663 26 2.66663H7.3333C6.97968 2.66663 6.64054 2.8071 6.39049 3.05715C6.14044 3.3072 5.99996 3.64634 5.99996 3.99996V26.6666H4.66663C4.31301 26.6666 3.97387 26.8071 3.72382 27.0571C3.47377 27.3072 3.3333 27.6463 3.3333 28C3.3333 28.3536 3.47377 28.6927 3.72382 28.9428C3.97387 29.1928 4.31301 29.3333 4.66663 29.3333H28.6666C29.0203 29.3333 29.3594 29.1928 29.6094 28.9428C29.8595 28.6927 30 28.3536 30 28C30 27.6463 29.8595 27.3072 29.6094 27.0571C29.3594 26.8071 29.0203 26.6666 28.6666 26.6666ZM18 26.6666H15.3333V21.3333H18V26.6666ZM24.6666 26.6666H20.6666V20C20.6666 19.6463 20.5262 19.3072 20.2761 19.0572C20.0261 18.8071 19.6869 18.6666 19.3333 18.6666H14C13.6463 18.6666 13.3072 18.8071 13.0572 19.0572C12.8071 19.3072 12.6666 19.6463 12.6666 20V26.6666H8.66663V5.33329H24.6666V26.6666Z" fill="#8A7769"/>
</svg>
