<svg width="30" height="30" viewBox="0 0 30 30" fill="none" xmlns="http://www.w3.org/2000/svg">
<path d="M10.752 4.6875C7.4231 4.6875 4.6875 7.41943 4.6875 10.752V19.248C4.6875 22.5769 7.41943 25.3125 10.752 25.3125H19.248C22.5769 25.3125 25.3125 22.5806 25.3125 19.248V10.752C25.3125 7.4231 22.5806 4.6875 19.248 4.6875H10.752ZM10.752 6.5625H19.248C21.5662 6.5625 23.4375 8.43384 23.4375 10.752V19.248C23.4375 21.5662 21.5662 23.4375 19.248 23.4375H10.752C8.43384 23.4375 6.5625 21.5662 6.5625 19.248V10.752C6.5625 8.43384 8.43384 6.5625 10.752 6.5625ZM20.5371 8.61328C20.0647 8.61328 19.6875 8.99048 19.6875 9.46289C19.6875 9.9353 20.0647 10.3125 20.5371 10.3125C21.0095 10.3125 21.3867 9.9353 21.3867 9.46289C21.3867 8.99048 21.0095 8.61328 20.5371 8.61328ZM15 9.375C11.9055 9.375 9.375 11.9055 9.375 15C9.375 18.0945 11.9055 20.625 15 20.625C18.0945 20.625 20.625 18.0945 20.625 15C20.625 11.9055 18.0945 9.375 15 9.375ZM15 11.25C17.0837 11.25 18.75 12.9163 18.75 15C18.75 17.0837 17.0837 18.75 15 18.75C12.9163 18.75 11.25 17.0837 11.25 15C11.25 12.9163 12.9163 11.25 15 11.25Z" fill="white"/>
</svg>
