<svg width="32" height="32" viewBox="0 0 32 32" fill="none" xmlns="http://www.w3.org/2000/svg">
<path d="M16 17.3334C15.6464 17.3334 15.3072 17.4739 15.0572 17.7239C14.8071 17.974 14.6666 18.3131 14.6666 18.6667V22.6667C14.6666 23.0204 14.8071 23.3595 15.0572 23.6096C15.3072 23.8596 15.6464 24.0001 16 24.0001C16.3536 24.0001 16.6927 23.8596 16.9428 23.6096C17.1928 23.3595 17.3333 23.0204 17.3333 22.6667V18.6667C17.3333 18.3131 17.1928 17.974 16.9428 17.7239C16.6927 17.4739 16.3536 17.3334 16 17.3334ZM22.6666 12.0001V9.33342C22.6666 7.5653 21.9643 5.86961 20.714 4.61937C19.4638 3.36913 17.7681 2.66675 16 2.66675C14.2319 2.66675 12.5362 3.36913 11.2859 4.61937C10.0357 5.86961 9.33331 7.5653 9.33331 9.33342V12.0001C8.27245 12.0001 7.25503 12.4215 6.50489 13.1717C5.75474 13.9218 5.33331 14.9392 5.33331 16.0001V25.3334C5.33331 26.3943 5.75474 27.4117 6.50489 28.1618C7.25503 28.912 8.27245 29.3334 9.33331 29.3334H22.6666C23.7275 29.3334 24.7449 28.912 25.4951 28.1618C26.2452 27.4117 26.6666 26.3943 26.6666 25.3334V16.0001C26.6666 14.9392 26.2452 13.9218 25.4951 13.1717C24.7449 12.4215 23.7275 12.0001 22.6666 12.0001ZM12 9.33342C12 8.27255 12.4214 7.25513 13.1716 6.50499C13.9217 5.75484 14.9391 5.33341 16 5.33341C17.0608 5.33341 18.0783 5.75484 18.8284 6.50499C19.5786 7.25513 20 8.27255 20 9.33342V12.0001H12V9.33342ZM24 25.3334C24 25.687 23.8595 26.0262 23.6095 26.2762C23.3594 26.5263 23.0203 26.6667 22.6666 26.6667H9.33331C8.97969 26.6667 8.64055 26.5263 8.3905 26.2762C8.14046 26.0262 7.99998 25.687 7.99998 25.3334V16.0001C7.99998 15.6465 8.14046 15.3073 8.3905 15.0573C8.64055 14.8072 8.97969 14.6667 9.33331 14.6667H22.6666C23.0203 14.6667 23.3594 14.8072 23.6095 15.0573C23.8595 15.3073 24 15.6465 24 16.0001V25.3334Z" fill="black"/>
</svg>
