<svg width="33" height="32" viewBox="0 0 33 32" fill="none" xmlns="http://www.w3.org/2000/svg">
<path d="M16.3333 17.3333C15.9797 17.3333 15.6406 17.4738 15.3905 17.7238C15.1405 17.9739 15 18.313 15 18.6666V22.6666C15 23.0202 15.1405 23.3594 15.3905 23.6094C15.6406 23.8595 15.9797 24 16.3333 24C16.6869 24 17.0261 23.8595 17.2761 23.6094C17.5262 23.3594 17.6666 23.0202 17.6666 22.6666V18.6666C17.6666 18.313 17.5262 17.9739 17.2761 17.7238C17.0261 17.4738 16.6869 17.3333 16.3333 17.3333ZM23 12V9.33329C23 7.56518 22.2976 5.86949 21.0474 4.61925C19.7971 3.369 18.1014 2.66663 16.3333 2.66663C14.5652 2.66663 12.8695 3.369 11.6193 4.61925C10.369 5.86949 9.66665 7.56518 9.66665 9.33329V12C8.60578 12 7.58837 12.4214 6.83822 13.1715C6.08808 13.9217 5.66665 14.9391 5.66665 16V25.3333C5.66665 26.3942 6.08808 27.4116 6.83822 28.1617C7.58837 28.9119 8.60578 29.3333 9.66665 29.3333H23C24.0608 29.3333 25.0783 28.9119 25.8284 28.1617C26.5786 27.4116 27 26.3942 27 25.3333V16C27 14.9391 26.5786 13.9217 25.8284 13.1715C25.0783 12.4214 24.0608 12 23 12ZM12.3333 9.33329C12.3333 8.27243 12.7547 7.25501 13.5049 6.50487C14.255 5.75472 15.2724 5.33329 16.3333 5.33329C17.3942 5.33329 18.4116 5.75472 19.1617 6.50487C19.9119 7.25501 20.3333 8.27243 20.3333 9.33329V12H12.3333V9.33329ZM24.3333 25.3333C24.3333 25.6869 24.1928 26.0261 23.9428 26.2761C23.6927 26.5262 23.3536 26.6666 23 26.6666H9.66665C9.31303 26.6666 8.97389 26.5262 8.72384 26.2761C8.47379 26.0261 8.33332 25.6869 8.33332 25.3333V16C8.33332 15.6463 8.47379 15.3072 8.72384 15.0572C8.97389 14.8071 9.31303 14.6666 9.66665 14.6666H23C23.3536 14.6666 23.6927 14.8071 23.9428 15.0572C24.1928 15.3072 24.3333 15.6463 24.3333 16V25.3333Z" fill="#8A7769"/>
</svg>
