<svg width="32" height="32" viewBox="0 0 32 32" fill="none" xmlns="http://www.w3.org/2000/svg">
<path d="M29.3333 6.77344C29.3344 5.9604 29.0942 5.16532 28.643 4.48895C28.1919 3.81257 27.5501 3.28534 26.799 2.97405C26.0479 2.66276 25.2213 2.58143 24.4239 2.74035C23.6266 2.89928 22.8943 3.29131 22.32 3.86677L18.5733 7.61344L9.91999 4.73344C9.6896 4.66103 9.44387 4.65255 9.20904 4.70891C8.97421 4.76527 8.75909 4.88435 8.58666 5.05344L5.41333 8.2001C5.26297 8.35221 5.1514 8.53825 5.08805 8.74253C5.0247 8.94681 5.01143 9.16333 5.04934 9.37382C5.08725 9.58432 5.17525 9.7826 5.3059 9.95193C5.43654 10.1213 5.60601 10.2567 5.79999 10.3468L12.7067 13.4801L9.23999 16.9468L6.95999 15.8001C6.71382 15.6669 6.43197 15.6145 6.15437 15.6504C5.87677 15.6863 5.61751 15.8086 5.41333 16.0001L3.05333 18.4134C2.80499 18.6633 2.6656 19.0012 2.6656 19.3534C2.6656 19.7057 2.80499 20.0436 3.05333 20.2934L11.7067 28.9468C11.9565 29.1951 12.2944 29.3345 12.6467 29.3345C12.9989 29.3345 13.3368 29.1951 13.5867 28.9468L16 26.5868C16.2001 26.3887 16.3324 26.1324 16.3779 25.8546C16.4234 25.5768 16.3798 25.2916 16.2533 25.0401L15.1067 22.7601L18.5733 19.2934L21.7067 26.2001C21.7967 26.3941 21.9322 26.5636 22.1015 26.6942C22.2708 26.8249 22.4691 26.9128 22.6796 26.9508C22.8901 26.9887 23.1066 26.9754 23.3109 26.912C23.5152 26.8487 23.7012 26.7371 23.8533 26.5868L27 23.4401C27.1691 23.2677 27.2882 23.0526 27.3445 22.8177C27.4009 22.5829 27.3924 22.3372 27.32 22.1068L24.44 13.4534L28.1333 9.6801C28.5163 9.29953 28.8196 8.8465 29.0257 8.34745C29.2317 7.84841 29.3363 7.31333 29.3333 6.77344ZM26.24 7.8001L21.92 12.1201C21.7509 12.2925 21.6318 12.5077 21.5755 12.7425C21.5191 12.9773 21.5276 13.223 21.6 13.4534L24.48 22.0934L23.28 23.2934L20.1467 16.4001C20.0577 16.2043 19.9228 16.033 19.7533 15.9006C19.5838 15.7683 19.3848 15.6789 19.1733 15.6401C18.9601 15.6012 18.7406 15.6148 18.5338 15.6799C18.327 15.7449 18.1392 15.8594 17.9867 16.0134L12.4933 21.5601C12.2961 21.7571 12.1656 22.011 12.1202 22.286C12.0747 22.5611 12.1166 22.8435 12.24 23.0934L13.3333 25.3334L12.5867 26.0801L5.87999 19.3601L6.66666 18.6668L8.94666 19.8134C9.19665 19.9368 9.47901 19.9787 9.75405 19.9333C10.0291 19.8878 10.283 19.7573 10.48 19.5601L16 14.0134C16.1532 13.8614 16.2672 13.6745 16.3322 13.4687C16.3973 13.2629 16.4114 13.0444 16.3734 12.832C16.3353 12.6196 16.2463 12.4195 16.1139 12.2491C15.9815 12.0786 15.8097 11.9429 15.6133 11.8534L8.66666 8.7201L9.86666 7.5201L18.5067 10.4001C18.7371 10.4725 18.9828 10.481 19.2176 10.4246C19.4524 10.3683 19.6676 10.2492 19.84 10.0801L24.16 5.7601C24.2929 5.62424 24.4515 5.51629 24.6267 5.44259C24.8018 5.36889 24.99 5.33092 25.18 5.33092C25.37 5.33092 25.5581 5.36889 25.7333 5.44259C25.9085 5.51629 26.0671 5.62424 26.2 5.7601C26.3391 5.88896 26.4491 6.046 26.5226 6.22074C26.5962 6.39548 26.6317 6.58391 26.6267 6.77344C26.6339 6.9617 26.6034 7.14951 26.537 7.32582C26.4706 7.50213 26.3696 7.66339 26.24 7.8001Z" fill="black"/>
</svg>
