<svg width="20" height="20" viewBox="0 0 20 20" fill="none" xmlns="http://www.w3.org/2000/svg">
<path d="M16.1012 4.63516C15.9746 4.56975 15.8514 4.49804 15.732 4.42031C15.3849 4.1908 15.0666 3.92037 14.784 3.61484C14.0769 2.80586 13.8129 1.98516 13.7156 1.41055H13.7195C13.6383 0.933594 13.6719 0.625 13.6769 0.625H10.4566V13.0773C10.4566 13.2445 10.4566 13.4098 10.4496 13.573C10.4496 13.5934 10.4476 13.6121 10.4465 13.634C10.4465 13.643 10.4465 13.6523 10.4445 13.6617C10.4445 13.6641 10.4445 13.6664 10.4445 13.6688C10.4106 14.1155 10.2674 14.5471 10.0275 14.9256C9.78755 15.304 9.45833 15.6177 9.06874 15.8391C8.6627 16.0701 8.20346 16.1912 7.73632 16.1906C6.23593 16.1906 5.01991 14.9672 5.01991 13.4563C5.01991 11.9453 6.23593 10.7219 7.73632 10.7219C8.02033 10.7216 8.3026 10.7663 8.57264 10.8543L8.57655 7.57539C7.75677 7.4695 6.92394 7.53465 6.1306 7.76674C5.33726 7.99882 4.60063 8.3928 3.96718 8.92383C3.41212 9.40609 2.94549 9.98152 2.58827 10.6242C2.45233 10.8586 1.93944 11.8004 1.87733 13.3289C1.83827 14.1965 2.09882 15.0953 2.22304 15.4668V15.4746C2.30116 15.6934 2.60389 16.4398 3.09725 17.0691C3.49508 17.5739 3.9651 18.0174 4.49218 18.3852V18.3773L4.49999 18.3852C6.05897 19.4445 7.78749 19.375 7.78749 19.375C8.08671 19.3629 9.08905 19.375 10.2273 18.8355C11.4898 18.2375 12.2086 17.3465 12.2086 17.3465C12.6678 16.8141 13.0329 16.2074 13.2883 15.5523C13.5797 14.7863 13.6769 13.8676 13.6769 13.5004V6.89414C13.716 6.91758 14.2363 7.26172 14.2363 7.26172C14.2363 7.26172 14.9859 7.74219 16.1555 8.05508C16.9945 8.27774 18.125 8.32461 18.125 8.32461V5.12774C17.7289 5.1707 16.9246 5.0457 16.1012 4.63516Z" fill="white"/>
</svg>
