<svg width="32" height="32" viewBox="0 0 32 32" fill="none" xmlns="http://www.w3.org/2000/svg">
<path d="M28 14.9867C27.9935 14.9515 27.9935 14.9153 28 14.8801V14.6267C28 14.3201 27.92 14.0134 27.8667 13.7067C27.8591 13.6358 27.8591 13.5643 27.8667 13.4934C27.8 13.1601 27.7067 12.8401 27.6133 12.5201C27.0432 10.6797 26.0341 9.00563 24.6729 7.64213C23.3118 6.27864 21.6394 5.26665 19.8 4.69341H19.6933C19.4 4.60008 19.0933 4.52008 18.7867 4.45341H18.5467C18.3043 4.40484 18.0595 4.36923 17.8133 4.34675H17.4933V4.00008C17.4933 3.64646 17.3529 3.30732 17.1028 3.05727C16.8528 2.80722 16.5136 2.66675 16.16 2.66675C15.8064 2.66675 15.4672 2.80722 15.2172 3.05727C14.9671 3.30732 14.8267 3.64646 14.8267 4.00008V4.08008C14.3779 4.13404 13.9327 4.21417 13.4933 4.32008C13.2133 4.37236 12.9371 4.44363 12.6667 4.53341H12.4933C12.16 4.64008 11.8533 4.76008 11.5333 4.88008C9.88693 5.53196 8.40666 6.54286 7.20033 7.83914C5.994 9.13543 5.09199 10.6845 4.56 12.3734C4.55539 12.4088 4.55539 12.4447 4.56 12.4801C4.45694 12.7949 4.37235 13.1154 4.30667 13.4401V13.6534C4.23556 13.9734 4.18222 14.3067 4.14667 14.6534C4.14667 14.6534 4.14667 14.7467 4.14667 14.8001C4.14667 14.8534 4.14667 14.8801 4.14667 14.9201C4.14667 14.9601 4.14667 14.9201 4.14667 14.9867C4.14667 15.3201 4.14667 15.6534 4.14667 16.0001C4.14667 16.3537 4.28714 16.6928 4.53719 16.9429C4.78724 17.1929 5.12638 17.3334 5.48 17.3334H14.8133V25.3334C14.8133 25.687 14.6729 26.0262 14.4228 26.2762C14.1728 26.5263 13.8336 26.6667 13.48 26.6667C13.1264 26.6667 12.7872 26.5263 12.5372 26.2762C12.2871 26.0262 12.1467 25.687 12.1467 25.3334C12.1467 24.9798 12.0062 24.6407 11.7561 24.3906C11.5061 24.1406 11.167 24.0001 10.8133 24.0001C10.4597 24.0001 10.1206 24.1406 9.87053 24.3906C9.62048 24.6407 9.48 24.9798 9.48 25.3334C9.48 26.3943 9.90143 27.4117 10.6516 28.1618C11.4017 28.912 12.4191 29.3334 13.48 29.3334C14.5409 29.3334 15.5583 28.912 16.3084 28.1618C17.0586 27.4117 17.48 26.3943 17.48 25.3334V17.3334H26.8133C27.167 17.3334 27.5061 17.1929 27.7561 16.9429C28.0062 16.6928 28.1467 16.3537 28.1467 16.0001C28 15.6534 28 15.3201 28 14.9867ZM10.6667 14.6667H6.77333C6.77333 14.6667 6.77333 14.5734 6.77333 14.5201C6.77333 14.4667 6.77333 14.1467 6.88 13.9734C6.98667 13.8001 6.88 13.8001 6.88 13.7201C6.88 13.6401 6.98667 13.2934 7.05333 13.0801V12.9734C7.48006 11.7642 8.15137 10.6559 9.02539 9.71769C9.89941 8.77944 10.9574 8.03134 12.1333 7.52008C11.24 9.80109 10.7439 12.2183 10.6667 14.6667ZM13.3333 14.6667C13.5867 9.45341 15.2533 6.66675 16 6.66675C16.7467 6.66675 18.3867 9.45341 18.6667 14.6667H13.3333ZM21.3333 14.6667C21.2561 12.2183 20.76 9.80109 19.8667 7.52008C21.0268 8.04767 22.0665 8.80726 22.9219 9.75203C23.7772 10.6968 24.43 11.8067 24.84 13.0134C24.9207 13.2448 24.9875 13.4808 25.04 13.7201C25.034 13.7866 25.034 13.8536 25.04 13.9201C25.04 14.1067 25.12 14.3067 25.1467 14.4934C25.1733 14.6801 25.1467 14.5867 25.1467 14.6401L21.3333 14.6667Z" fill="black"/>
</svg>
