<svg width="32" height="33" viewBox="0 0 32 33" fill="none" xmlns="http://www.w3.org/2000/svg">
<path d="M28 15.4866C27.9935 15.4514 27.9935 15.4152 28 15.38V15.1266C28 14.82 27.92 14.5133 27.8667 14.2066C27.8591 14.1357 27.8591 14.0642 27.8667 13.9933C27.8 13.66 27.7067 13.34 27.6133 13.02C27.0432 11.1796 26.0341 9.50551 24.6729 8.14201C23.3118 6.77851 21.6394 5.76653 19.8 5.19329H19.6933C19.4 5.09996 19.0933 5.01996 18.7867 4.95329H18.5467C18.3043 4.90471 18.0595 4.86911 17.8133 4.84663H17.4933V4.49996C17.4933 4.14634 17.3529 3.8072 17.1028 3.55715C16.8528 3.3071 16.5136 3.16663 16.16 3.16663C15.8064 3.16663 15.4672 3.3071 15.2172 3.55715C14.9671 3.8072 14.8267 4.14634 14.8267 4.49996V4.57996C14.3779 4.63392 13.9327 4.71405 13.4933 4.81996C13.2133 4.87224 12.9371 4.94351 12.6667 5.03329H12.4933C12.16 5.13996 11.8533 5.25996 11.5333 5.37996C9.88693 6.03184 8.40666 7.04274 7.20033 8.33902C5.994 9.63531 5.09199 11.1843 4.56 12.8733C4.55539 12.9087 4.55539 12.9446 4.56 12.98C4.45694 13.2948 4.37235 13.6153 4.30667 13.94V14.1533C4.23556 14.4733 4.18222 14.8066 4.14667 15.1533C4.14667 15.1533 4.14667 15.2466 4.14667 15.3C4.14667 15.3533 4.14667 15.38 4.14667 15.42C4.14667 15.46 4.14667 15.42 4.14667 15.4866C4.14667 15.82 4.14667 16.1533 4.14667 16.5C4.14667 16.8536 4.28714 17.1927 4.53719 17.4428C4.78724 17.6928 5.12638 17.8333 5.48 17.8333H14.8133V25.8333C14.8133 26.1869 14.6729 26.5261 14.4228 26.7761C14.1728 27.0262 13.8336 27.1666 13.48 27.1666C13.1264 27.1666 12.7872 27.0262 12.5372 26.7761C12.2871 26.5261 12.1467 26.1869 12.1467 25.8333C12.1467 25.4797 12.0062 25.1405 11.7561 24.8905C11.5061 24.6404 11.167 24.5 10.8133 24.5C10.4597 24.5 10.1206 24.6404 9.87053 24.8905C9.62048 25.1405 9.48 25.4797 9.48 25.8333C9.48 26.8942 9.90143 27.9116 10.6516 28.6617C11.4017 29.4119 12.4191 29.8333 13.48 29.8333C14.5409 29.8333 15.5583 29.4119 16.3084 28.6617C17.0586 27.9116 17.48 26.8942 17.48 25.8333V17.8333H26.8133C27.167 17.8333 27.5061 17.6928 27.7561 17.4428C28.0062 17.1927 28.1467 16.8536 28.1467 16.5C28 16.1533 28 15.82 28 15.4866ZM10.6667 15.1666H6.77333C6.77333 15.1666 6.77333 15.0733 6.77333 15.02C6.77333 14.9666 6.77333 14.6466 6.88 14.4733C6.98667 14.3 6.88 14.3 6.88 14.22C6.88 14.14 6.98667 13.7933 7.05333 13.58V13.4733C7.48006 12.2641 8.15137 11.1558 9.02539 10.2176C9.89941 9.27931 10.9574 8.53122 12.1333 8.01996C11.24 10.301 10.7439 12.7181 10.6667 15.1666ZM13.3333 15.1666C13.5867 9.95329 15.2533 7.16663 16 7.16663C16.7467 7.16663 18.3867 9.95329 18.6667 15.1666H13.3333ZM21.3333 15.1666C21.2561 12.7181 20.76 10.301 19.8667 8.01996C21.0268 8.54755 22.0665 9.30714 22.9219 10.2519C23.7772 11.1967 24.43 12.3066 24.84 13.5133C24.9207 13.7447 24.9875 13.9806 25.04 14.22C25.034 14.2865 25.034 14.3534 25.04 14.42C25.04 14.6066 25.12 14.8066 25.1467 14.9933C25.1733 15.18 25.1467 15.0866 25.1467 15.14L21.3333 15.1666Z" fill="#8A7769"/>
</svg>
