<svg width="22" height="16" viewBox="0 0 22 16" fill="none" xmlns="http://www.w3.org/2000/svg">
<path d="M11.4652 15.2325L7.15686 15.1538C5.7619 15.1264 4.36346 15.1811 2.99586 14.8971C0.91541 14.4728 0.768023 12.3922 0.613799 10.647C0.401294 8.19345 0.483561 5.69537 0.884586 3.26229C1.11098 1.89708 2.00192 1.08245 3.37973 0.993807C8.03086 0.672093 12.7129 0.710219 17.3537 0.86031C17.8439 0.87407 18.3374 0.949273 18.8207 1.03487C21.2063 1.45238 21.2645 3.81014 21.4191 5.79494C21.5733 7.80021 21.5082 9.81578 21.2134 11.8074C20.977 13.4564 20.5245 14.8393 18.615 14.9728C16.2225 15.1473 13.885 15.2879 11.4858 15.2431C11.4859 15.2325 11.4721 15.2325 11.4652 15.2325ZM8.93233 11.0577C10.7353 10.0242 12.5038 9.00788 14.2964 7.98129C12.4901 6.94777 10.7249 5.93148 8.93233 4.90489V11.0577Z" fill="white"/>
</svg>
